<svg xmlns="http://www.w3.org/2000/svg" viewBox="0 0 1440 320"><path fill="#1976d2" fill-opacity="1" d="M0,192L14.1,186.7C28.2,181,56,171,85,176C112.9,181,141,203,169,208C197.6,213,226,203,254,218.7C282.4,235,311,277,339,250.7C367.1,224,395,128,424,80C451.8,32,480,32,508,74.7C536.5,117,565,203,593,218.7C621.2,235,649,181,678,160C705.9,139,734,149,762,138.7C790.6,128,819,96,847,117.3C875.3,139,904,213,932,234.7C960,256,988,224,1016,218.7C1044.7,213,1073,235,1101,224C1129.4,213,1158,171,1186,144C1214.1,117,1242,107,1271,133.3C1298.8,160,1327,224,1355,234.7C1383.5,245,1412,203,1426,181.3L1440,160L1440,0L1425.9,0C1411.8,0,1384,0,1355,0C1327.1,0,1299,0,1271,0C1242.4,0,1214,0,1186,0C1157.6,0,1129,0,1101,0C1072.9,0,1045,0,1016,0C988.2,0,960,0,932,0C903.5,0,875,0,847,0C818.8,0,791,0,762,0C734.1,0,706,0,678,0C649.4,0,621,0,593,0C564.7,0,536,0,508,0C480,0,452,0,424,0C395.3,0,367,0,339,0C310.6,0,282,0,254,0C225.9,0,198,0,169,0C141.2,0,113,0,85,0C56.5,0,28,0,14,0L0,0Z"></path></svg>